PathFileType	4	(X/Y/Z)	1_Data\ik.trc
DataRate	CameraRate	NumFrames	NumMarkers	Units	OrigDataRate	OrigDataStartFrame	OrigNumFrames
120.000000	120.000000	4	54	mm	120.000000	81	131
Frame#	Time	Sternum			Neck			RShoulder			LShoulder			Xiphoid			Thoracic			RAsis			LAsis			RPsis			LPsis			Lumbar			RElbow			RWrist			RRadius			RUlna			LElbow			LWrist			LUlna			LRadius			LThighSuperior			LThighInferior			LThighLateral			LPatella			LShankSuperior			LShankInferior			LShankLateral			RThighSuperior			RThighInferior			RThighLateral			RPatella			RShankSuperior			RShankInferior			RShankLateral			RHeel			RToe			RMidfootMedial			RMidfootLateral			RHindfoot			RMidfootSuperior			RToeMedial			RToeLateral			LHeel			LToe			LMidfootMedial			LMidfootLateral			LHindfoot			LMidfootSuperior			LToeMedial			LToeLateral			Oglobal			Sacral			Xglobal			Yglobal			Zglobal			
		X1	Y1	Z1	X2	Y2	Z2	X3	Y3	Z3	X4	Y4	Z4	X5	Y5	Z5	X6	Y6	Z6	X7	Y7	Z7	X8	Y8	Z8	X9	Y9	Z9	X10	Y10	Z10	X11	Y11	Z11	X12	Y12	Z12	X13	Y13	Z13	X14	Y14	Z14	X15	Y15	Z15	X16	Y16	Z16	X17	Y17	Z17	X18	Y18	Z18	X19	Y19	Z19	X20	Y20	Z20	X21	Y21	Z21	X22	Y22	Z22	X23	Y23	Z23	X24	Y24	Z24	X25	Y25	Z25	X26	Y26	Z26	X27	Y27	Z27	X28	Y28	Z28	X29	Y29	Z29	X30	Y30	Z30	X31	Y31	Z31	X32	Y32	Z32	X33	Y33	Z33	X34	Y34	Z34	X35	Y35	Z35	X36	Y36	Z36	X37	Y37	Z37	X38	Y38	Z38	X39	Y39	Z39	X40	Y40	Z40	X41	Y41	Z41	X42	Y42	Z42	X43	Y43	Z43	X44	Y44	Z44	X45	Y45	Z45	X46	Y46	Z46	X47	Y47	Z47	X48	Y48	Z48	X49	Y49	Z49	X50	Y50	Z50	X51	Y51	Z51	X52	Y52	Z52	X53	Y53	Z53	X54	Y54	Z54	

82	0.6750000000000002	773.4151611328125	1435.02783203125	122.2290725708008	610.0639038085938	1532.56884765625	142.0575408935547	666.2974243164062	1509.972290039062	297.2453002929687	630.5010375976562	1528.393798828125	-2.083279848098771	809.5618286132812	1277.714721679688	119.5067291259766	531.107421875	1312.684326171875	145.7012481689453	743.0865478515625	1014.84765625	257.3152770996094	722.9425659179688	1001.55859375	-15.93555259704587	546.6854858398438	1031.795043945312	192.2070465087891	532.785400390625	1021.862854003906	89.44517517089845	536.5969848632812	1095.493041992188	124.3018493652344	575.339599609375	1188.7255859375	390.855712890625	615.5175170898438	919.7896118164062	415.1625366210938	630.2059936523438	909.9736328125	364.7840576171875	570.8209838867188	915.7730102539062	419.1138610839844	629.184814453125	1196.139282226562	-139.0017700195312	809.8313598632812	1002.152099609375	-197.2673950195312	770.7377319335938	978.2017211914062	-187.0323181152343	837.0394287109375	1008.002624511719	-155.0901794433593	660.4080810546875	823.288818359375	-60.88578033447263	678.0700073242188	589.7788696289062	-41.78177642822261	759.4158325195312	693.6434936523438	1.987916231155446	750.0941162109375	478.2689819335938	15.92399692535407	566.3340454101562	400.1119079589844	-42.48614883422847	436.5382385253906	256.5884704589844	-4.499151706695519	544.8006591796875	299.50390625	27.47426223754888	715.428466796875	819.8084716796875	310.4145507812501	777.8504028320312	589.0608520507812	278.0095825195313	824.1430053710938	757.60400390625	233.8001556396485	861.984130859375	535.9291381835938	218.2000122070313	780.1217041015625	429.6401672363281	286.7707824707032	797.9447021484375	177.0115203857422	250.0331115722657	841.0260620117188	308.6954650878906	207.6969299316407	715.646728515625	64.93843078613283	195.650115966797	1031.579833984375	55.82457351684572	208.0404663085939	936.3508911132812	35.08047485351563	157.025848388672	931.29443359375	31.6711940765381	273.258026123047	878.974853515625	32.06788253784181	264.5943603515626	896.8294677734375	95.12734222412111	207.1279449462892	979.2221069335938	39.25965118408204	160.393035888672	979.79541015625	39.85405349731447	263.8717041015626	294.004150390625	218.6327056884766	58.19095611572268	522.2752685546875	30.71927261352539	2.676223039627137	436.5335388183594	57.18783569335938	70.58280944824224	415.47265625	56.39577865600586	-43.56718063354487	378.0391540527344	87.89041137695312	-27.13213920593258	453.697998046875	119.4598083496094	17.94116020202642	470.0870666503906	38.08896255493165	61.56578445434576	456.4156188964844	44.276123046875	-41.3625984191894	0	0	0	539.7354736328125	1026.828979492188	140.8261108398438	-200	0	-2.449293598294706e-14	-2.449293598294706e-14	1.224646799147353e-14	200	1.499759782661858e-30	200	-1.224646799147353e-14	
83	0.6833333333333335	781.5576171875	1435.474487304688	122.6081161499024	618.6141357421875	1533.388061523438	143.5003356933594	675.72265625	1510.738525390625	298.1512451171874	638.1360473632812	1529.188842773438	-0.9038904905319368	817.4684448242188	1278.16259765625	119.7103805541992	539.2266235351562	1313.511840820312	147.0267944335937	751.9017944335938	1016.463989257812	258.8129882812501	731.0091552734375	1001.990539550781	-14.48689842224118	555.1956787109375	1032.318969726562	194.3545989990234	540.9555053710938	1021.889221191406	91.1582717895508	544.6734619140625	1095.6826171875	126.0022506713867	587.4343872070312	1188.873901367188	392.7377319335938	630.423095703125	920.46337890625	416.820556640625	644.4391479492188	910.642822265625	366.2502136230469	585.7723388671875	915.9908447265625	421.3026733398438	633.4827880859375	1196.496337890625	-136.5762023925781	810.7574462890625	1000.873413085938	-197.6533203125	771.7431030273438	977.2492065429688	-186.8253936767578	839.459228515625	1006.708251953125	-155.7590789794921	671.813720703125	823.531982421875	-59.9147796630859	695.050048828125	590.5433349609375	-42.71395492553706	773.790771484375	695.6546630859375	1.601134777069144	768.4612426757812	479.63623046875	14.66854667663581	583.9444580078125	404.5057373046875	-43.75487899780268	450.603759765625	263.2374877929688	-5.292181491851768	563.4989624023438	303.7501831054688	26.26832008361821	724.658203125	820.921875	311.9930419921876	783.4580688476562	588.9447021484375	278.4177246093751	831.5653076171875	757.1856689453125	234.6342315673829	867.1842651367188	534.834716796875	217.9269561767579	784.5149536132812	429.3029174804688	286.8695373535157	799.3906860351562	176.7476806640625	249.8771057128907	843.95068359375	307.5565795898438	207.4264221191407	715.7882690429688	65.1139373779297	195.5709381103516	1031.896362304688	54.98104476928712	207.9208984375001	936.564697265625	34.56897735595704	156.600555419922	931.3926391601562	31.6444892883301	273.325164794922	878.3113403320312	31.88155746459963	264.3959960937501	897.3750610351562	95.04431915283205	206.4487609863282	979.5944213867188	38.54782867431641	160.166717529297	979.8478393554688	39.49888992309572	263.6439819335939	310.7449035644531	233.4022979736328	58.76369857788088	524.993408203125	26.64381790161133	1.600014090538088	442.5294189453125	62.52951049804688	69.83883666992193	420.8468017578125	62.31984710693359	-43.19295883178707	384.9158935546875	97.70653533935547	-26.99411201477047	463.2203979492188	123.9871444702148	17.12898635864263	474.216552734375	39.95470046997071	60.67991256713873	460.4951171875	46.09416580200195	-42.24467468261713	0	0	0	548.0756225585938	1027.104125976562	142.7564392089844	-200	0	-2.449293598294706e-14	-2.449293598294706e-14	1.224646799147353e-14	200	1.499759782661858e-30	200	-1.224646799147353e-14	
84	0.6916666666666668	789.6385498046875	1435.829711914062	122.809799194336	626.9725952148438	1534.05908203125	144.7171478271484	684.890869140625	1511.578125	298.9318847656249	645.7129516601562	1529.918212890625	0.2275107502937171	825.1870727539062	1278.5	119.9855575561524	547.2623291015625	1314.162109375	148.6280517578125	760.5235595703125	1017.779602050781	260.1996459960938	739.1087646484375	1002.121520996094	-12.97429943084714	563.5960083007812	1032.789672851562	196.2202606201172	549.1590576171875	1022.057250976562	92.84982299804689	552.8214721679688	1095.918090820312	127.4999923706055	599.4270629882812	1189.198486328125	394.5777282714844	645.5004272460938	920.92529296875	418.218505859375	659.1287841796875	911.44482421875	367.7052307128906	601.0487670898438	916.3057250976562	423.50048828125	637.4962158203125	1196.908203125	-134.4515533447266	811.6498413085938	999.21240234375	-198.0013580322265	772.73681640625	976.0516967773438	-186.4020385742187	840.83203125	1004.8349609375	-157.1067657470703	682.9315795898438	824.0928344726562	-59.14538955688473	711.5322265625	591.5916137695312	-43.55492782592768	787.7388305664062	697.7847900390625	0.9183359146118701	786.3516845703125	481.3486938476562	13.29944896698005	598.9385986328125	409.6245422363281	-44.36013793945308	465.166259765625	269.8919372558594	-6.161917686462362	579.5811767578125	308.7214050292969	25.72585487365728	733.4266967773438	821.745849609375	313.2608337402344	788.71533203125	588.7578735351562	278.7836914062501	839.0065307617188	755.696044921875	235.079818725586	872.1171875	533.9146728515625	217.4820861816407	788.7612915039062	429.144775390625	287.1364135742189	800.8228149414062	176.317626953125	249.7989654541016	846.3508911132812	306.9237976074219	207.1545410156251	715.7691040039062	65.15065765380861	195.7262268066407	1031.949096679688	54.43896102905275	207.7649536132814	937.0449829101562	33.80537033081055	156.7993316650392	931.4320678710938	31.58827018737795	273.4285583496095	878.1654663085938	31.81248283386232	264.4264526367189	897.4432373046875	94.54196929931642	205.997283935547	979.6485595703125	37.69941711425782	160.1157836914064	979.8858642578125	39.35770797729494	263.5841674804689	327.7916259765625	246.7923736572266	60.08183670043948	528.1460571289062	23.49676895141602	1.282311558723513	450.0571594238281	68.03370666503906	69.62193298339849	426.5308227539062	68.55023956298828	-41.28050994873043	393.1944885253906	107.0807800292969	-26.10613822937007	473.4716186523438	128.9785766601562	16.75205802917485	479.43408203125	42.44596862792969	60.56109619140631	465.2908020019531	48.14949417114258	-42.33145523071283	0	0	0	556.3775024414062	1027.423461914062	144.5350494384766	-200	0	-2.449293598294706e-14	-2.449293598294706e-14	1.224646799147353e-14	200	1.499759782661858e-30	200	-1.224646799147353e-14	
85	0.7000000000000002	797.6160888671875	1436.289794921875	122.9595718383789	634.9851684570312	1534.662963867188	145.6141662597656	693.8201293945312	1512.373291015625	299.5714721679687	653.2183837890625	1530.457397460938	1.174269437789903	833.0570068359375	1278.948852539062	120.15380859375	555.4315795898438	1314.72216796875	150.0234069824218	769.1007690429688	1019.046752929688	261.3148498535157	747.031494140625	1002.291442871094	-11.75267601013181	571.9389038085938	1033.16845703125	197.8609619140625	557.3262329101562	1022.286560058594	94.49586486816408	560.860595703125	1096.143676757812	128.8436737060547	611.30224609375	1189.483764648438	396.5170288085938	661.0845947265625	921.7732543945312	419.9725341796875	674.1423950195312	912.3147583007812	369.1514892578125	616.5752563476562	916.5870361328125	425.5410461425781	641.427734375	1197.146728515625	-132.2154388427734	812.2612915039062	997.5984497070312	-198.4531097412109	773.4221801757812	974.82763671875	-186.2288665771484	842.2015380859375	1002.75439453125	-158.2297821044921	693.6925048828125	824.7803344726562	-58.48337554931637	727.5560302734375	592.8576049804688	-44.01220703124994	801.541748046875	700.1845092773438	0.21015109121805	804.1046752929688	483.37744140625	12.15460395812995	612.8728637695312	413.561279296875	-45.59109497070308	480.2182922363281	275.4216003417969	-6.107369422912556	594.6033325195312	312.5106201171875	24.55768775939947	741.7156372070312	822.3125610351562	314.2219848632813	793.9810180664062	588.7791748046875	279.3376159667969	846.2098388671875	754.40380859375	235.3960266113282	876.9086303710938	533.1690673828125	217.3963317871095	793.1559448242188	428.935302734375	287.3000488281251	802.1903686523438	176.2314453125	249.8200683593751	848.8556518554688	306.4024658203125	207.2053375244141	715.8806762695312	65.14050292968751	195.7237854003907	1032.05029296875	53.95285797119142	207.6575927734376	937.3038940429688	33.45427703857423	156.8670806884767	931.4925537109375	31.4712715148926	273.4961242675782	878.1522216796875	31.74875450134279	264.4682922363282	897.6317749023438	94.34448242187501	205.8183441162111	979.705810546875	37.21762084960938	160.055145263672	979.9632568359375	39.11351394653322	263.5194091796876	343.5351257324219	257.5916137695312	61.18576812744143	533.1036376953125	21.64771461486816	1.5268059968949	458.6233520507812	73.04000091552734	69.34134674072271	434.7138671875	76.19632720947266	-41.70301818847652	402.9308471679688	115.5828475952148	-25.63733482360836	484.3317565917969	133.6959533691406	17.34542465209966	485.81640625	44.8927116394043	60.42917633056646	472.9574890136719	51.62506484985352	-42.56968307495112	0	0	0	564.632568359375	1027.7275390625	146.1784057617188	-200	0	-2.449293598294706e-14	-2.449293598294706e-14	1.224646799147353e-14	200	1.499759782661858e-30	200	-1.224646799147353e-14	
